<svg xmlns="http://www.w3.org/2000/svg" viewBox="0 0 279 83.333"><defs/><path fill="#D45B7E" d="M40.002 44.575c0 5.422-2.283 10.067-6.85 13.939-4.005 3.418-8.879 5.594-14.62 6.529a4.737 4.737 0 01-.521.039c-.615 0-1.977-1.875-4.085-5.627-2.11-3.752-3.165-6.041-3.165-6.869 0-.293.2-.48.601-.562 3.872-.881 6.435-1.628 7.69-2.243 2.777-1.388 4.166-3.445 4.166-6.168 0-1.735-.908-3.671-2.724-5.808-3.151-3.631-4.86-5.647-5.127-6.048-1.843-2.777-2.764-5.848-2.764-9.212 0-4.886 2.256-8.945 6.769-12.176 3.685-2.67 8.211-4.406 13.578-5.207a8.36 8.36 0 01.681-.04c.4 0 .721.32.961.961.694 1.949 2.31 5.474 4.847 10.574.08.16.12.294.12.4 0 .455-.24.681-.721.681-.214 0-.575-.04-1.082-.12-.508-.08-.895-.121-1.162-.121-1.923 0-3.605.441-5.047 1.322-1.736 1.015-2.604 2.43-2.604 4.246 0 1.629.961 3.632 2.884 6.008 3.391 4.273 5.167 6.516 5.327 6.729 1.9 2.939 2.848 5.863 2.848 8.773z"/><path fill="#E2A33E" d="M90.55 43.734c0 5.716-1.682 10.454-5.047 14.22-3.471 3.898-8.024 5.848-13.658 5.848-2.057 0-4.26-.508-6.609-1.522-2.35-1.014-3.418-1.522-3.205-1.522-.347 0-.521.402-.521 1.203 0 1.361.066 3.41.2 6.147.133 2.737.2 4.787.2 6.147 0 .854-.44 1.283-1.322 1.283l-8.171.039c-1.842 0-3.031-.066-3.565-.201-.801-.187-1.201-.681-1.201-1.481l.08-30.841c0-6.222-.468-11.469-1.402-15.741a3.526 3.526 0 01-.081-.681c0-.4.161-.667.481-.801 1.042-.401 3.03-.828 5.968-1.282 2.857-.454 4.927-.681 6.208-.681 1.042 0 1.635.688 1.782 2.063.146 1.375.327 2.063.541 2.063-.267 0 .874-.727 3.424-2.183 2.55-1.455 4.867-2.183 6.95-2.183 5.794 0 10.427 1.91 13.898 5.728 3.368 3.684 5.05 8.477 5.05 14.378zm-14.86-.08c0-2.136-.655-4.005-1.963-5.607-1.416-1.682-3.164-2.523-5.247-2.523-2.136 0-3.845.841-5.127 2.523-1.121 1.522-1.682 3.392-1.682 5.607 0 2.271.587 4.153 1.763 5.647 1.254 1.63 2.99 2.443 5.207 2.443 4.699.001 7.049-2.697 7.049-8.09z"/><path fill="#98C461" d="M134.289 43.293c0 6.088-1.863 11.029-5.587 14.819-3.725 3.792-8.619 5.688-14.68 5.688-5.875 0-10.708-1.869-14.5-5.608-3.792-3.737-5.688-8.544-5.688-14.419 0-6.194 1.815-11.221 5.447-15.08 3.631-3.858 8.545-5.788 14.74-5.788 6.035 0 10.921 1.889 14.66 5.667 3.738 3.781 5.608 8.687 5.608 14.721zm-13.138 0c0-2.109-.655-3.973-1.963-5.587-1.309-1.615-3.004-2.423-5.086-2.423-2.11 0-3.845.828-5.207 2.483-1.282 1.549-1.923 3.392-1.923 5.527 0 2.162.641 4.019 1.923 5.566 1.362 1.656 3.097 2.482 5.207 2.482 2.083 0 3.805-.826 5.167-2.482 1.254-1.546 1.882-3.401 1.882-5.566z"/><path fill="#9878AE" d="M177.667 43.293c0 6.088-1.862 11.029-5.588 14.819-3.726 3.792-8.618 5.688-14.681 5.688-5.875 0-10.707-1.869-14.5-5.608-3.792-3.737-5.688-8.544-5.688-14.419 0-6.194 1.815-11.221 5.447-15.08 3.631-3.858 8.544-5.788 14.74-5.788 6.033 0 10.92 1.889 14.66 5.667 3.741 3.781 5.61 8.687 5.61 14.721zm-13.138 0c0-2.109-.654-3.973-1.963-5.587-1.31-1.615-3.004-2.423-5.088-2.423-2.108 0-3.845.828-5.207 2.483-1.28 1.549-1.922 3.392-1.922 5.527 0 2.162.642 4.019 1.922 5.566 1.362 1.656 3.099 2.482 5.207 2.482 2.084 0 3.807-.826 5.168-2.482 1.254-1.546 1.883-3.401 1.883-5.566z"/><path fill="#6C9BCB" d="M227.014 36.845c0 5.902-2.897 10.388-8.691 13.458-.534.268-.801.548-.801.841 0 .455 1.24 2.343 3.725 5.667 2.482 3.324 3.725 5.066 3.725 5.227 0 .721-3.537 1.082-10.613 1.082-2.725 0-4.299-.347-4.727-1.041-1.068-1.789-2.738-4.353-5.007-7.69-.134-.16-2.537-.347-7.21-.562 0 .828.014 2.15.04 3.965.026 1.816.04 3.164.04 4.045 0 .802-.389 1.242-1.161 1.322-.481.053-2.591.08-6.329.08-3.23 0-5.113-.054-5.646-.16-.721-.133-1.082-.681-1.082-1.642V36.925c0-3.284-.119-8.197-.36-14.74-.24-6.542-.36-11.441-.36-14.7 0-.641.36-.975 1.082-1.001 1.416 0 3.538-.026 6.368-.08.747-.053 2.043-.213 3.886-.48 1.629-.24 2.91-.361 3.846-.361.427 0 .641.388.641 1.162 0 1.015-.08 2.39-.24 4.125-.187 2.03-.294 3.418-.32 4.166-.239 5.741-.359 10.188-.359 13.338 0 .748.093 1.135.279 1.162.24-.161.562-.454.962-.881 3.472-3.604 7.69-5.407 12.657-5.407 4.672 0 8.385 1.068 11.135 3.204 3.01 2.376 4.52 5.847 4.52 10.413zm-15.903 2.603c0-3.23-1.829-4.847-5.487-4.847-1.629 0-3.364.615-5.207 1.843-1.978 1.309-2.964 2.737-2.964 4.286 0 2.218.307 3.552.921 4.005.479.32 2.017.48 4.606.48 5.42 0 8.131-1.922 8.131-5.767z"/><path fill="#D75D5B" d="M271.152 34.441c0 5.181-.16 8.332-.48 9.453-.4 1.335-3.324 6.168-8.771 14.5-.854 1.31-3.059 4.339-6.608 9.092-3.925 5.233-6.155 7.997-6.688 8.292-.642.4-4.74.602-12.297.602-1.147 0-1.923-.135-2.322-.4a121.043 121.043 0 00-1.321-3.885 290.01 290.01 0 01-1.282-2.844c-.613-1.39-.921-2.311-.921-2.765 0-.508.228-.761.681-.761 7.424 0 11.135-1.696 11.135-5.087 0-.294-1.815-2.95-5.446-7.972-3.765-5.152-5.835-8.41-6.208-9.772-.214-.774-.32-3.538-.32-8.292 0-.961.026-2.409.08-4.346.053-1.936.08-3.384.08-4.346 0-.694.439-1.042 1.321-1.042 1.362 0 3.425.04 6.188.12 2.762.08 4.825.12 6.188.12.561 0 .841.415.841 1.242 0 .748-.04 1.876-.12 3.385-.08 1.509-.12 2.637-.12 3.384 0 3.365.054 5.648.16 6.85.08.935.882 2.67 2.403 5.208 1.603 2.644 2.764 3.965 3.484 3.965.613 0 1.655-1.309 3.125-3.926 1.36-2.482 2.096-4.151 2.202-5.006.267-2.35.4-4.9.4-7.65 0-.721-.067-1.815-.2-3.285-.135-1.468-.2-2.576-.2-3.324 0-.507.28-.761.841-.761 1.361 0 3.397-.053 6.108-.16 2.71-.106 4.746-.16 6.106-.16.694 0 1.162.347 1.402 1.042.373 1.227.559 4.07.559 8.529z"/></svg>