<?xml version="1.0" encoding="utf-8"?>
<!-- Generator: Adobe Illustrator 16.0.3, SVG Export Plug-In . SVG Version: 6.00 Build 0)  -->
<!DOCTYPE svg PUBLIC "-//W3C//DTD SVG 1.1//EN" "http://www.w3.org/Graphics/SVG/1.1/DTD/svg11.dtd">
<svg version="1.1" id="レイヤー_1" xmlns="http://www.w3.org/2000/svg" xmlns:xlink="http://www.w3.org/1999/xlink" x="0px"
	 y="0px" width="279px" height="83.333px" viewBox="0 0 279 83.333" enable-background="new 0 0 279 83.333" xml:space="preserve">
<path fill="#D45B7E" d="M40.002,44.575c0,5.422-2.283,10.067-6.85,13.939c-4.005,3.418-8.879,5.594-14.62,6.529
	c-0.214,0.025-0.387,0.039-0.521,0.039c-0.615,0-1.977-1.875-4.085-5.627c-2.11-3.752-3.165-6.041-3.165-6.869
	c0-0.293,0.2-0.48,0.601-0.562c3.872-0.881,6.435-1.628,7.69-2.243c2.777-1.388,4.166-3.445,4.166-6.168
	c0-1.735-0.908-3.671-2.724-5.808c-3.151-3.631-4.86-5.647-5.127-6.048c-1.843-2.777-2.764-5.848-2.764-9.212
	c0-4.886,2.256-8.945,6.769-12.176c3.685-2.67,8.211-4.406,13.578-5.207c0.293-0.026,0.521-0.04,0.681-0.04
	c0.4,0,0.721,0.32,0.961,0.961c0.694,1.949,2.31,5.474,4.847,10.574c0.08,0.16,0.12,0.294,0.12,0.4c0,0.455-0.24,0.681-0.721,0.681
	c-0.214,0-0.575-0.04-1.082-0.12c-0.508-0.08-0.895-0.121-1.162-0.121c-1.923,0-3.605,0.441-5.047,1.322
	c-1.736,1.015-2.604,2.43-2.604,4.246c0,1.629,0.961,3.632,2.884,6.008c3.391,4.273,5.167,6.516,5.327,6.729
	C39.054,38.741,40.002,41.665,40.002,44.575z"/>
<path fill="#E2A33E" d="M90.55,43.734c0,5.716-1.682,10.454-5.047,14.22c-3.471,3.898-8.024,5.848-13.658,5.848
	c-2.057,0-4.26-0.508-6.609-1.522c-2.35-1.014-3.418-1.522-3.205-1.522c-0.347,0-0.521,0.402-0.521,1.203
	c0,1.361,0.066,3.41,0.2,6.147c0.133,2.737,0.2,4.787,0.2,6.147c0,0.854-0.44,1.283-1.322,1.283l-8.171,0.039
	c-1.842,0-3.031-0.066-3.565-0.201c-0.801-0.187-1.201-0.681-1.201-1.481l0.08-30.841c0-6.222-0.468-11.469-1.402-15.741
	c-0.054-0.267-0.081-0.494-0.081-0.681c0-0.4,0.161-0.667,0.481-0.801c1.042-0.401,3.03-0.828,5.968-1.282
	c2.857-0.454,4.927-0.681,6.208-0.681c1.042,0,1.635,0.688,1.782,2.063c0.146,1.375,0.327,2.063,0.541,2.063
	c-0.267,0,0.874-0.727,3.424-2.183c2.55-1.455,4.867-2.183,6.95-2.183c5.794,0,10.427,1.91,13.898,5.728
	C88.868,33.04,90.55,37.833,90.55,43.734z M75.69,43.654c0-2.136-0.655-4.005-1.963-5.607c-1.416-1.682-3.164-2.523-5.247-2.523
	c-2.136,0-3.845,0.841-5.127,2.523c-1.121,1.522-1.682,3.392-1.682,5.607c0,2.271,0.587,4.153,1.763,5.647
	c1.254,1.63,2.99,2.443,5.207,2.443C73.34,51.745,75.69,49.047,75.69,43.654z"/>
<path fill="#98C461" d="M134.289,43.293c0,6.088-1.863,11.029-5.587,14.819c-3.725,3.792-8.619,5.688-14.68,5.688
	c-5.875,0-10.708-1.869-14.5-5.608c-3.792-3.737-5.688-8.544-5.688-14.419c0-6.194,1.815-11.221,5.447-15.08
	c3.631-3.858,8.545-5.788,14.74-5.788c6.035,0,10.921,1.889,14.66,5.667C132.419,32.353,134.289,37.259,134.289,43.293z
	 M121.151,43.293c0-2.109-0.655-3.973-1.963-5.587c-1.309-1.615-3.004-2.423-5.086-2.423c-2.11,0-3.845,0.828-5.207,2.483
	c-1.282,1.549-1.923,3.392-1.923,5.527c0,2.162,0.641,4.019,1.923,5.566c1.362,1.656,3.097,2.482,5.207,2.482
	c2.083,0,3.805-0.826,5.167-2.482C120.523,47.313,121.151,45.458,121.151,43.293z"/>
<path fill="#9878AE" d="M177.667,43.293c0,6.088-1.862,11.029-5.588,14.819c-3.726,3.792-8.618,5.688-14.681,5.688
	c-5.875,0-10.707-1.869-14.5-5.608c-3.792-3.737-5.688-8.544-5.688-14.419c0-6.194,1.815-11.221,5.447-15.08
	c3.631-3.858,8.544-5.788,14.74-5.788c6.033,0,10.92,1.889,14.66,5.667C175.798,32.353,177.667,37.259,177.667,43.293z
	 M164.529,43.293c0-2.109-0.654-3.973-1.963-5.587c-1.31-1.615-3.004-2.423-5.088-2.423c-2.108,0-3.845,0.828-5.207,2.483
	c-1.28,1.549-1.922,3.392-1.922,5.527c0,2.162,0.642,4.019,1.922,5.566c1.362,1.656,3.099,2.482,5.207,2.482
	c2.084,0,3.807-0.826,5.168-2.482C163.9,47.313,164.529,45.458,164.529,43.293z"/>
<path fill="#6C9BCB" d="M227.014,36.845c0,5.902-2.897,10.388-8.691,13.458c-0.534,0.268-0.801,0.548-0.801,0.841
	c0,0.455,1.24,2.343,3.725,5.667c2.482,3.324,3.725,5.066,3.725,5.227c0,0.721-3.537,1.082-10.613,1.082
	c-2.725,0-4.299-0.347-4.727-1.041c-1.068-1.789-2.738-4.353-5.007-7.69c-0.134-0.16-2.537-0.347-7.21-0.562
	c0,0.828,0.014,2.15,0.04,3.965c0.026,1.816,0.04,3.164,0.04,4.045c0,0.802-0.389,1.242-1.161,1.322
	c-0.481,0.053-2.591,0.08-6.329,0.08c-3.23,0-5.113-0.054-5.646-0.16c-0.721-0.133-1.082-0.681-1.082-1.642V36.925
	c0-3.284-0.119-8.197-0.36-14.74c-0.24-6.542-0.36-11.441-0.36-14.7c0-0.641,0.36-0.975,1.082-1.001c1.416,0,3.538-0.026,6.368-0.08
	c0.747-0.053,2.043-0.213,3.886-0.48c1.629-0.24,2.91-0.361,3.846-0.361c0.427,0,0.641,0.388,0.641,1.162
	c0,1.015-0.08,2.39-0.24,4.125c-0.187,2.03-0.294,3.418-0.32,4.166c-0.239,5.741-0.359,10.188-0.359,13.338
	c0,0.748,0.093,1.135,0.279,1.162c0.24-0.161,0.562-0.454,0.962-0.881c3.472-3.604,7.69-5.407,12.657-5.407
	c4.672,0,8.385,1.068,11.135,3.204C225.504,28.808,227.014,32.279,227.014,36.845z M211.111,39.448c0-3.23-1.829-4.847-5.487-4.847
	c-1.629,0-3.364,0.615-5.207,1.843c-1.978,1.309-2.964,2.737-2.964,4.286c0,2.218,0.307,3.552,0.921,4.005
	c0.479,0.32,2.017,0.48,4.606,0.48C208.4,45.215,211.111,43.293,211.111,39.448z"/>
<path fill="#D75D5B" d="M271.152,34.441c0,5.181-0.16,8.332-0.48,9.453c-0.4,1.335-3.324,6.168-8.771,14.5
	c-0.854,1.31-3.059,4.339-6.608,9.092c-3.925,5.233-6.155,7.997-6.688,8.292c-0.642,0.4-4.74,0.602-12.297,0.602
	c-1.147,0-1.923-0.135-2.322-0.4c-0.348-1.096-0.789-2.391-1.321-3.885c-0.429-0.936-0.854-1.883-1.282-2.844
	c-0.613-1.39-0.921-2.311-0.921-2.765c0-0.508,0.228-0.761,0.681-0.761c7.424,0,11.135-1.696,11.135-5.087
	c0-0.294-1.815-2.95-5.446-7.972c-3.765-5.152-5.835-8.41-6.208-9.772c-0.214-0.774-0.32-3.538-0.32-8.292
	c0-0.961,0.026-2.409,0.08-4.346c0.053-1.936,0.08-3.384,0.08-4.346c0-0.694,0.439-1.042,1.321-1.042c1.362,0,3.425,0.04,6.188,0.12
	c2.762,0.08,4.825,0.12,6.188,0.12c0.561,0,0.841,0.415,0.841,1.242c0,0.748-0.04,1.876-0.12,3.385
	c-0.08,1.509-0.12,2.637-0.12,3.384c0,3.365,0.054,5.648,0.16,6.85c0.08,0.935,0.882,2.67,2.403,5.208
	c1.603,2.644,2.764,3.965,3.484,3.965c0.613,0,1.655-1.309,3.125-3.926c1.36-2.482,2.096-4.151,2.202-5.006
	c0.267-2.35,0.4-4.9,0.4-7.65c0-0.721-0.067-1.815-0.2-3.285c-0.135-1.468-0.2-2.576-0.2-3.324c0-0.507,0.28-0.761,0.841-0.761
	c1.361,0,3.397-0.053,6.108-0.16c2.71-0.106,4.746-0.16,6.106-0.16c0.694,0,1.162,0.347,1.402,1.042
	C270.966,27.139,271.152,29.982,271.152,34.441z"/>
</svg>
