<svg xmlns="http://www.w3.org/2000/svg" viewBox="0 0 144 144"><defs/><path fill="none" d="M0 0h144v144H0z"/><path fill="#FFF" d="M110.002 96.545A60.453 60.453 0 00121.5 61C121.5 27.449 94.302.25 60.75.25 27.199.25 0 27.449 0 61s27.199 60.75 60.75 60.75a60.479 60.479 0 0036.276-12.018l33.496 33.496 13.081-13.082-33.601-33.601zM94.314 80.857A39.177 39.177 0 0181.383 94.09 38.797 38.797 0 0160.75 100c-21.539 0-39-17.461-39-39a38.803 38.803 0 015.91-20.634 39.183 39.183 0 0113.233-12.93A38.81 38.81 0 0160.75 22c21.539 0 39 17.461 39 39a38.8 38.8 0 01-5.436 19.857z"/></svg>