<?xml version="1.0" encoding="utf-8"?>
<!-- Generator: Adobe Illustrator 16.0.3, SVG Export Plug-In . SVG Version: 6.00 Build 0)  -->
<!DOCTYPE svg PUBLIC "-//W3C//DTD SVG 1.1//EN" "http://www.w3.org/Graphics/SVG/1.1/DTD/svg11.dtd">
<svg version="1.1" xmlns="http://www.w3.org/2000/svg" xmlns:xlink="http://www.w3.org/1999/xlink" x="0px" y="0px" width="144px"
	 height="144px" viewBox="0 0 144 144" enable-background="new 0 0 144 144" xml:space="preserve">
<g id="search" display="none">
	<rect id="path_1_" display="inline" fill="none" width="144" height="144"/>
	<path id="path" display="inline" fill="#FFFFFF" d="M110.002,96.545C117.229,86.549,121.5,74.277,121.5,61
		c0-33.551-27.198-60.75-60.75-60.75C27.199,0.25,0,27.449,0,61s27.199,60.75,60.75,60.75c13.599,0,26.152-4.47,36.276-12.018
		l33.496,33.496l13.081-13.082L110.002,96.545z M94.314,80.857c-3.189,5.379-7.633,9.923-12.931,13.233
		C75.398,97.831,68.329,100,60.75,100c-21.539,0-39-17.461-39-39c0-7.579,2.169-14.648,5.91-20.634
		c3.31-5.297,7.854-9.741,13.233-12.93C46.71,23.987,53.497,22,60.75,22c21.539,0,39,17.461,39,39
		C99.75,68.253,97.764,75.04,94.314,80.857z"/>
</g>
<g id="externallink" display="none">
	<g display="inline">
		<polygon fill="#FFFFFF" points="131.25,131.25 12.75,131.25 12.75,12.75 57.75,12.75 45,0 0,0 0,144 144,144 144,99 131.25,86.25 
					"/>
	</g>
	<polygon display="inline" fill="#FFFFFF" points="118.545,0 72,0 84.75,12.75 95.272,23.272 37.357,81.188 62.813,106.644 
		120.729,48.729 131.25,59.25 144,72 144,25.456 144,0 	"/>
</g>
<g id="triangleUp" display="none">
	<polygon display="inline" fill="#333333" points="8.636,126.728 72.25,16.545 135.864,126.728 	"/>
</g>
<g id="triangleDown" display="none">
	<polygon display="inline" fill="#333333" points="135.864,16.545 72.251,126.728 8.636,16.545 	"/>
</g>
<g id="allow" display="none">
	<g display="inline">
		<polygon fill="#FFFFFF" points="19.412,132.13 14.588,123.37 107.817,72.037 16.619,22.646 21.381,13.854 128.683,71.963 		"/>
	</g>
</g>
<g id="loading">
	<path fill="none" d="M37.528,37.528C28.707,46.351,23.25,58.538,23.25,72c0,26.924,21.826,48.75,48.75,48.75
		S120.75,98.924,120.75,72c0-13.462-5.457-25.649-14.278-34.472L72,72L37.528,37.528z"/>
	<path fill="#FFFFFF" d="M106.472,37.528c8.821,8.822,14.278,21.01,14.278,34.472c0,26.924-21.826,48.75-48.75,48.75
		S23.25,98.924,23.25,72c0-13.462,5.457-25.649,14.278-34.472l-9.546-9.546C16.718,39.248,9.75,54.81,9.75,72
		c0,34.38,27.87,62.25,62.25,62.25s62.25-27.87,62.25-62.25c0-17.19-6.968-32.752-18.232-44.018L106.472,37.528z"/>
</g>
</svg>
