<svg xmlns="http://www.w3.org/2000/svg" viewBox="0 0 144 144"><defs/><path fill="none" d="M37.528 37.528C28.707 46.351 23.25 58.538 23.25 72c0 26.924 21.826 48.75 48.75 48.75S120.75 98.924 120.75 72c0-13.462-5.457-25.649-14.278-34.472L72 72 37.528 37.528z"/><path fill="#FFF" d="M106.472 37.528C115.293 46.35 120.75 58.538 120.75 72c0 26.924-21.826 48.75-48.75 48.75S23.25 98.924 23.25 72c0-13.462 5.457-25.649 14.278-34.472l-9.546-9.546C16.718 39.248 9.75 54.81 9.75 72c0 34.38 27.87 62.25 62.25 62.25s62.25-27.87 62.25-62.25c0-17.19-6.968-32.752-18.232-44.018l-9.546 9.546z"/></svg>