<?xml version="1.0" encoding="utf-8"?>
<!-- Generator: Adobe Illustrator 16.0.3, SVG Export Plug-In . SVG Version: 6.00 Build 0)  -->
<!DOCTYPE svg PUBLIC "-//W3C//DTD SVG 1.1//EN" "http://www.w3.org/Graphics/SVG/1.1/DTD/svg11.dtd">
<svg version="1.1" id="search" xmlns="http://www.w3.org/2000/svg" xmlns:xlink="http://www.w3.org/1999/xlink" x="0px" y="0px"
	 width="144px" height="144px" viewBox="0 0 144 144" enable-background="new 0 0 144 144" xml:space="preserve">
<rect fill="none" width="144" height="144"/>
<path fill="#FFFFFF" d="M110.002,96.545C117.229,86.549,121.5,74.277,121.5,61c0-33.551-27.198-60.75-60.75-60.75
	C27.199,0.25,0,27.449,0,61s27.199,60.75,60.75,60.75c13.599,0,26.152-4.47,36.276-12.018l33.496,33.496l13.081-13.082
	L110.002,96.545z M94.314,80.857c-3.189,5.379-7.633,9.923-12.931,13.233C75.398,97.831,68.329,100,60.75,100
	c-21.539,0-39-17.461-39-39c0-7.579,2.169-14.648,5.91-20.634c3.31-5.297,7.854-9.741,13.233-12.93C46.71,23.987,53.497,22,60.75,22
	c21.539,0,39,17.461,39,39C99.75,68.253,97.764,75.04,94.314,80.857z"/>
</svg>
