<?xml version="1.0" encoding="utf-8"?>
<!-- Generator: Adobe Illustrator 16.0.3, SVG Export Plug-In . SVG Version: 6.00 Build 0)  -->
<!DOCTYPE svg PUBLIC "-//W3C//DTD SVG 1.1//EN" "http://www.w3.org/Graphics/SVG/1.1/DTD/svg11.dtd">
<svg version="1.1" xmlns="http://www.w3.org/2000/svg" xmlns:xlink="http://www.w3.org/1999/xlink" x="0px" y="0px" width="144px"
	 height="144px" viewBox="0 0 144 144" enable-background="new 0 0 144 144" xml:space="preserve">
<g id="bg" display="none">
	<rect display="inline" fill="#040000" width="144" height="144"/>
</g>
<g id="search" display="none">
	<rect id="path_1_" display="inline" fill="none" width="144" height="144"/>
	<path id="path" display="inline" fill="#FFFFFF" d="M110.002,96.545C117.229,86.549,121.5,74.277,121.5,61
		c0-33.551-27.198-60.75-60.75-60.75C27.199,0.25,0,27.449,0,61s27.199,60.75,60.75,60.75c13.599,0,26.152-4.47,36.276-12.018
		l33.496,33.496l13.081-13.082L110.002,96.545z M94.314,80.857c-3.189,5.379-7.633,9.923-12.931,13.233
		C75.398,97.831,68.329,100,60.75,100c-21.539,0-39-17.461-39-39c0-7.579,2.169-14.648,5.91-20.634
		c3.31-5.297,7.854-9.741,13.233-12.93C46.71,23.987,53.497,22,60.75,22c21.539,0,39,17.461,39,39
		C99.75,68.253,97.764,75.04,94.314,80.857z"/>
</g>
<g id="externallink" display="none">
	<g display="inline">
		<polygon fill="#FFFFFF" points="131.25,131.25 12.75,131.25 12.75,12.75 57.75,12.75 45,0 0,0 0,144 144,144 144,99 131.25,86.25 
					"/>
	</g>
	<polygon display="inline" fill="#FFFFFF" points="118.545,0 72,0 84.75,12.75 95.272,23.272 37.357,81.188 62.813,106.644 
		120.729,48.729 131.25,59.25 144,72 144,25.456 144,0 	"/>
</g>
<g id="triangleUp_x28_selectbox_x29_">
	<polygon fill="#323232" points="8.636,126.728 72.25,16.545 135.864,126.728 	"/>
</g>
<g id="up" display="none">
	<polygon display="inline" fill="#FFFFFF" points="8.636,126.728 72.25,16.545 135.864,126.728 	"/>
</g>
<g id="triangleDown_x28_selectbox_x29_" display="none">
	<polygon display="inline" fill="#323232" points="135.864,16.545 72.251,126.728 8.636,16.545 	"/>
</g>
<g id="down" display="none">
	<polygon display="inline" fill="#FFFFFF" points="135.864,16.545 72.251,126.728 8.636,16.545 	"/>
</g>
<g id="allow" display="none">
	<g display="inline">
		<polygon fill="#FFFFFF" points="36,132.13 14.588,123.37 99,72.037 16.619,22.646 36,13.854 128.683,71.963 		"/>
	</g>
</g>
<g id="loading" display="none">
	<path display="inline" fill="none" d="M37.528,37.528C28.707,46.351,23.25,58.538,23.25,72c0,26.924,21.826,48.75,48.75,48.75
		S120.75,98.924,120.75,72c0-13.462-5.457-25.649-14.278-34.472L72,72L37.528,37.528z"/>
	<path display="inline" fill="#FFFFFF" d="M106.472,37.528c8.821,8.822,14.278,21.01,14.278,34.472
		c0,26.924-21.826,48.75-48.75,48.75S23.25,98.924,23.25,72c0-13.462,5.457-25.649,14.278-34.472l-9.546-9.546
		C16.718,39.248,9.75,54.81,9.75,72c0,34.38,27.87,62.25,62.25,62.25s62.25-27.87,62.25-62.25c0-17.19-6.968-32.752-18.232-44.018
		L106.472,37.528z"/>
</g>
<g id="tel" display="none">
	<g display="inline">
		<path fill="#FFFFFF" d="M51.291,96.438c0.283,0.281,0.57,0.563,0.86,0.837c11.472,10.877,23.463,21.746,37.733,28.8
			c5.229,2.584,11.246,4.517,17.027,2.432c7.598-2.738,14.951-6.473,21.432-11.313c1.674-1.248,4.539-3.212,6.913-5.539
			c2.797-2.742,4.912-5.983,3.587-9.146c-1.976-4.711-6.104-7.903-10.197-10.701c-3.613-2.471-6.9-5.768-10.856-7.666
			c-4.175-2-9.419-0.395-12.839,2.381c-4.449,3.613-7.369,10.433-14.133,10.396c-3.938-0.021-9.043-2.924-12.184-5.063
			c-3.357-2.288-6.424-5.229-9.229-8.155c-1.78-1.857-3.563-3.642-5.422-5.423c-2.927-2.805-5.869-5.873-8.156-9.229
			c-2.139-3.141-5.042-8.245-5.063-12.184c-0.037-6.763,6.782-9.684,10.396-14.134c2.776-3.42,4.382-8.663,2.381-12.837
			c-1.898-3.956-5.196-7.245-7.664-10.856c-2.801-4.095-5.991-8.222-10.702-10.197c-3.162-1.327-6.404,0.789-9.146,3.586
			c-2.327,2.375-4.292,5.24-5.54,6.912c-4.841,6.482-8.573,13.836-11.313,21.432c-2.085,5.782-0.152,11.799,2.433,17.028
			C28.66,72.066,39.53,84.058,50.41,95.533C50.7,95.839,50.993,96.14,51.291,96.438z"/>
	</g>
</g>
<g id="mail" display="none">
	<g display="inline">
		<polygon fill="#FFFFFF" points="9,27 9,46.182 71.5,82.938 135,45.594 135,27 		"/>
		<polygon fill="#FFFFFF" points="71.5,93.38 62.623,88.159 9,56.623 9,117 13.583,117 31.337,117 111.663,117 129.417,117 135,117 
			135,56.035 80.377,88.159 		"/>
	</g>
</g>
</svg>
